<?xml version="1.0" encoding="UTF-8" standalone="no"?>
<!-- Created with Inkscape (http://www.inkscape.org/) -->

<svg
   version="1.1"
   id="svg1"
   width="898.97339"
   height="596.17004"
   viewBox="0 0 898.97339 596.17004"
   xml:space="preserve"
   xmlns="http://www.w3.org/2000/svg"
   xmlns:svg="http://www.w3.org/2000/svg"><defs
     id="defs1" /><g
     id="g3704"
     transform="translate(-4046.0374,-1981.6915)"><path
       style="fill:#000000"
       d="m 4564.7704,2021.7374 -3.2668,-0.9428 -4.3854,-4.217 -4.3854,-4.2171 -1.1729,-4.3859 -1.1729,-4.3859 0.6576,-4.7816 0.6577,-4.7817 2.4441,-3.3128 2.4442,-3.3129 4.2233,-2.8541 4.2234,-2.8541 7.1028,0.3465 7.1028,0.3465 4.3125,2.988 4.3124,2.988 2.3347,5.2785 2.3348,5.2785 v 3.3886 3.3886 l -1.8719,4.3668 -1.8718,4.3667 -3.6008,3.1616 -3.6009,3.1616 -3.7773,1.049 -3.7773,1.049 -3,-0.085 -3,-0.085 z"
       id="path2309" /><path
       style="fill:#000000"
       d="m 4413.6294,2021.7554 -3.4078,-1.0342 -3.3195,-2.5319 -3.3195,-2.5319 -1.441,-2.8885 -1.441,-2.8886 -0.6839,-3.1138 -0.6839,-3.1139 0.6601,-5.2839 0.6602,-5.2838 3.5455,-4.1421 3.5455,-4.1422 3.5187,-1.4702 3.5187,-1.4702 h 5.2558 5.2557 l 3.4547,1.4435 3.4547,1.4434 3.6009,3.9858 3.6009,3.9858 1.0609,3.8207 1.061,3.8208 0.01,2.5707 0.01,2.5707 -2.75,5.4231 -2.75,5.4231 -4,2.7391 -4,2.739 -5.5,0.4819 -5.5,0.4818 z"
       id="path2308" /><path
       style="fill:#000000"
       d="m 4362.162,2021.4508 -3.8752,-1.441 -3.2666,-3.1661 -3.2666,-3.1661 -1.705,-5.4207 -1.705,-5.4207 1.2317,-5.1344 1.2317,-5.1344 3.54,-3.9183 3.54,-3.9184 2.7755,-1.4352 2.7754,-1.4353 h 5.8924 5.8924 l 4.4073,2.3239 4.4073,2.3239 2.932,4.3487 2.9321,4.3488 0.4408,5.316 0.4408,5.3161 -2.697,5.5126 -2.6971,5.5127 -4.3787,2.566 -4.3786,2.5661 -5.2972,0.4484 -5.2971,0.4484 z"
       id="path2307" /><path
       style="fill:#000000"
       d="m 4312.9276,2021.9677 -3.1097,-0.7975 -2.3439,-1.6418 -2.344,-1.6417 -2.6792,-3.9893 -2.6793,-3.9893 -0.6702,-4.4697 -0.6703,-4.4698 1.1345,-4.3042 1.1346,-4.3042 1.4827,-2.3127 1.4827,-2.3127 4.6317,-2.9373 4.6316,-2.9373 h 5.8364 5.8363 l 3.2179,1.3471 3.2179,1.3472 3.6935,4.0932 3.6935,4.0932 0.6862,3.658 0.6863,3.6581 -0.5593,5.4187 -0.5593,5.4187 -3.0605,3.8642 -3.0605,3.8643 -3.5105,1.6658 -3.5105,1.6659 -4.7495,0.4053 -4.7494,0.4053 z"
       id="path2306" /><path
       style="fill:#000000"
       d="m 4265.0373,2022.418 -1,-0.3828 -2.7317,-0.602 -2.7317,-0.6019 -3.5694,-3.134 -3.5694,-3.134 -1.4489,-2.8019 -1.4489,-2.8019 v -6.5993 -6.5993 l 1.4146,-2.7003 1.4147,-2.7004 3.3353,-3.1886 3.3354,-3.1887 2.8151,-1.0613 2.8151,-1.0614 h 5.1191 5.1192 l 4.2833,2.0735 4.2832,2.0735 2.927,3.98 2.9269,3.9801 0.6443,4.2963 0.6443,4.2964 -0.9435,4.1992 -0.9435,4.1992 -2.3281,3.3976 -2.3281,3.3976 -3.5379,1.9885 -3.538,1.9884 -4.9792,0.5351 -4.9792,0.5351 z"
       id="path2305" /><path
       style="fill:#000000"
       d="m 4561.0789,2070.5821 -3.9585,-2.2421 -2.7881,-3.9915 -2.7882,-3.9915 -0.6065,-4.5103 -0.6065,-4.5104 1.1631,-4.3193 1.1631,-4.3194 5.037,-4.8043 5.0371,-4.8044 4.8256,-0.6401 4.8256,-0.6402 4.0396,0.646 4.0396,0.646 4.1466,3.5493 4.1466,3.5494 1.8912,4.4118 1.8911,4.4117 v 3.3886 3.3886 l -2.365,5.2785 -2.3649,5.2785 -2.3851,2.1834 -2.385,2.1834 -2.8151,1.0666 -2.8151,1.0666 -6.1849,-0.016 -6.1849,-0.017 z"
       id="path2282" /><path
       style="fill:#000000"
       d="m 4510.8417,2070.7787 -4.1955,-2.0768 -3.1634,-4.9297 -3.1634,-4.9298 0.3675,-7.2781 0.3676,-7.278 2.1877,-2.7813 2.1877,-2.7812 3.5772,-2.8428 3.5771,-2.8428 4.7314,-0.6507 4.7314,-0.6507 4.2681,0.959 4.2682,0.959 3.4862,2.659 3.4862,2.6591 1.9908,3.9022 1.9908,3.9022 v 5.4178 5.4177 l -1.4905,3.5671 -1.4904,3.5671 -2.6753,2.6753 -2.6753,2.6753 -3.3021,1.3797 -3.3022,1.3797 -5.7821,-8e-4 -5.7821,-8e-4 z"
       id="path2281" /><path
       style="fill:#000000"
       d="m 4461.5373,2071.5414 -2.5,-1.1803 -2.3494,-2.0021 -2.3494,-2.002 -2.4006,-4.7167 -2.4006,-4.7168 v -4.0441 -4.0442 l 2.0558,-4.3735 2.0558,-4.3735 2.8236,-2.5159 2.8236,-2.5159 2.3706,-1.2986 2.3706,-1.2987 7.2138,-0.023 7.2139,-0.023 2.7283,2.0369 2.7282,2.0369 2.8863,3.5662 2.8863,3.5661 0.8982,3.8692 0.8981,3.8691 -0.62,4.8604 -0.6201,4.8603 -3.1504,4.1397 -3.1505,4.1396 -3.4561,1.702 -3.456,1.702 -6.5,-0.02 -6.5,-0.02 z"
       id="path2280" /><path
       style="fill:#000000"
       d="m 4411.0373,2071.4155 -3,-1.3632 -2.6459,-2.5416 -2.6459,-2.5415 -1.7432,-4.5644 -1.7431,-4.5645 0.5718,-5.5406 0.5719,-5.5406 1.8172,-2.8643 1.8172,-2.8644 3.8057,-3.0217 3.8057,-3.0217 5.2742,-0.659 5.2742,-0.6589 3.609,0.9965 3.609,0.9965 3.5122,2.6789 3.5122,2.6788 2.5489,5.115 2.5489,5.1149 -0.044,3.0537 -0.044,3.0536 -1.3086,3.6638 -1.3087,3.6637 -2.3974,3.0435 -2.3975,3.0435 -4.0658,2.0427 -4.0657,2.0428 -5.9343,-0.039 -5.9342,-0.039 z"
       id="path2279" /><path
       style="fill:#000000"
       d="m 4360.0373,2071.1732 -3,-1.6037 -2.1111,-2.1062 -2.1111,-2.1063 -1.5532,-3.0345 -1.5532,-3.0346 -0.6902,-3.6792 -0.6902,-3.6791 1.7446,-5.5465 1.7446,-5.5465 3.8032,-3.436 3.8032,-3.436 4.2512,-1.1447 4.2512,-1.1447 5.1931,0.6488 5.1932,0.6489 4.2482,3.6362 4.2481,3.6363 1.8422,4.0558 1.8422,4.0558 0.022,4.2899 0.022,4.2898 -2.1129,4.2102 -2.1128,4.2101 -2.1372,2.3373 -2.1371,2.3374 -3.3722,1.4126 -3.3721,1.4127 -6.1279,-0.04 -6.1278,-0.04 z"
       id="path2278" /><path
       style="fill:#000000"
       d="m 4310.3106,2071.4853 -2.7266,-1.2093 -2.9966,-2.871 -2.9967,-2.8709 -1.6436,-4.9486 -1.6437,-4.9485 0.5195,-3.873 0.5195,-3.873 2.1402,-4.267 2.1402,-4.267 3.0074,-2.3675 3.0073,-2.3676 4.1999,-0.9512 4.1999,-0.9511 4.5,0.6423 4.5,0.6424 3.8067,2.6017 3.8068,2.6017 1.9507,2.7395 1.9507,2.7395 0.6178,4.5072 0.6177,4.5072 -0.6981,4.6558 -0.6982,4.6558 -3.6771,4.0751 -3.677,4.075 -3.2179,1.3471 -3.2179,1.3471 -5.7821,-0.081 -5.7821,-0.081 z"
       id="path2277" /><path
       style="fill:#000000"
       d="m 4259.1499,2071.2131 -2.8873,-1.5639 -2.3861,-2.6461 -2.3861,-2.6461 -1.534,-2.8113 -1.5339,-2.8113 -0.081,-5.7074 -0.081,-5.7074 2.0945,-4.1055 2.0945,-4.1055 3.0893,-2.5995 3.0893,-2.5995 4.149,-1.1172 4.1491,-1.1172 5.551,0.6935 5.5509,0.6936 4.6492,4.6491 4.6491,4.6491 1.1921,4.4272 1.1921,4.4271 -0.6854,4.5711 -0.6854,4.5711 -1.0235,2 -1.0235,2 -2.6278,2.8319 -2.6278,2.8319 -3.3722,1.4181 -3.3721,1.4181 -6.1279,-0.04 -6.1278,-0.04 z"
       id="path2276" /><path
       style="fill:#000000"
       d="m 4209.0187,2071.4634 -3.0186,-1.3152 -3.1256,-3.5598 -3.1255,-3.5598 -1.2309,-3.7297 -1.2309,-3.7297 0.5411,-5.2436 0.5412,-5.2435 1.5531,-3.0034 1.5532,-3.0034 4.0793,-3 4.0793,-3 5.3667,-0.6705 5.3666,-0.6705 4.0979,1.1034 4.0979,1.1035 3.2634,2.8652 3.2633,2.8653 2.2235,4.4522 2.2236,4.4522 -0.022,3.8904 -0.022,3.8905 -2.0323,4.5 -2.0323,4.5 -2.6957,2.3755 -2.6957,2.3756 -3.2179,1.3744 -3.2179,1.3745 -5.7821,-0.039 -5.7821,-0.039 z"
       id="path2275" /><path
       style="fill:#000000"
       d="m 4612.4767,2121.3875 -4.5606,-2.3764 -2.6335,-3.8271 -2.6336,-3.8271 -1.0558,-2.8151 -1.0559,-2.8151 v -2.8128 -2.8127 l 1.5908,-3.8722 1.5908,-3.8721 3.1592,-3.3281 3.1592,-3.3282 3.3721,-1.4218 3.3721,-1.4219 5.6279,0.016 5.6279,0.016 3.9535,2.2393 3.9534,2.2393 3.2966,4.322 3.2965,4.322 v 6.7265 6.7265 l -2.9518,4.6545 -2.9518,4.6545 -5.015,2.5412 -5.0149,2.5413 -4.7833,-0.046 -4.7832,-0.047 z"
       id="path2253" /><path
       style="fill:#000000"
       d="m 4561.2826,2120.9104 -4.6462,-2.9466 -2.4823,-3.8034 -2.4824,-3.8035 -0.6734,-3.723 -0.6735,-3.7229 1.1649,-4.7771 1.165,-4.777 1.712,-2.0776 1.712,-2.0777 4.3793,-3.1723 4.3793,-3.1724 h 6.6542 6.6542 l 4.7587,3.0179 4.7587,3.0179 2.4371,5.5106 2.4371,5.5106 v 3.5114 3.5113 l -2.1129,4.2102 -2.1128,4.2101 -2.1372,2.3473 -2.1371,2.3474 -3.7102,1.9026 -3.7102,1.9027 h -5.344 -5.3441 z"
       id="path2252" /><path
       style="fill:#000000"
       d="m 4511.6153,2121.5389 -4.4221,-2.2617 -3.0622,-3.7835 -3.0623,-3.7836 -0.3767,-7.4597 -0.3767,-7.4597 2.6606,-4.0204 2.6605,-4.0203 4.6462,-2.9465 4.6462,-2.9466 h 5.8539 5.8539 l 3.2003,1.6142 3.2004,1.6141 2.8392,2.6359 2.8393,2.6358 1.4107,2.7004 1.4108,2.7003 v 6.3539 6.3539 l -2.9518,4.6545 -2.9518,4.6545 -5.015,2.5412 -5.0149,2.5413 -4.7833,-0.028 -4.7832,-0.028 z"
       id="path2251" /><path
       style="fill:#000000"
       d="m 4461.5373,2121.9082 -3.5,-1.8603 -2.1447,-2.3455 -2.1447,-2.3455 -2.1053,-3.9852 -2.1053,-3.9852 0.022,-4.0148 0.022,-4.0148 1.8909,-4.1647 1.891,-4.1647 3.029,-2.6988 3.029,-2.6989 2.6724,-1.3864 2.6724,-1.3865 6.1357,0.035 6.1357,0.035 2.0832,1.2146 2.0833,1.2145 2.4167,2.0307 2.4168,2.0306 1.8723,2.1833 1.8724,2.1833 0.8701,4.6573 0.87,4.6572 -0.6384,3.9925 -0.6384,3.9924 -3.1505,4.1306 -3.1506,4.1307 -3.9534,2.2392 -3.9535,2.2393 -5.5,-0.028 -5.5,-0.028 z"
       id="path2250" /><path
       style="fill:#000000"
       d="m 4411.1371,2121.7118 -3.9001,-2.0567 -1.6505,-1.6491 -1.6505,-1.6491 -1.7518,-2.7948 -1.7518,-2.7948 -0.5554,-4.7052 -0.5554,-4.7052 1.1341,-4.2045 1.1342,-4.2045 2.5995,-3.0894 2.5994,-3.0893 3.9092,-1.9943 3.9091,-1.9943 5.3059,-0.063 5.3059,-0.063 3.9092,2.0099 3.9092,2.01 2.5,2.8415 2.5,2.8416 1.1816,2.1269 1.1815,2.1269 0.6499,3.4639 0.6498,3.4639 -1.0785,4.0051 -1.0784,4.0051 -2.8418,3.9041 -2.8418,3.9041 -4.2557,2.25 -4.2556,2.25 -5.1555,-0.044 -5.1555,-0.044 z"
       id="path2249" /><path
       style="fill:#000000"
       d="m 4361.0373,2122.1981 -3,-1.5788 -2.8195,-2.6312 -2.8195,-2.6312 -1.6805,-3.5 -1.6805,-3.5 0.059,-5.5 0.059,-5.5 1.7989,-3.5 1.7988,-3.5 2.142,-1.8124 2.1421,-1.8124 3,-1.9338 3,-1.9339 h 6.2898 6.2898 l 3.7102,1.8936 3.7102,1.8936 1.7118,1.8929 1.7118,1.893 2.151,4.8628 2.1511,4.8629 -0.4476,4.6582 -0.4476,4.6582 -3.3171,5.0669 -3.3171,5.0669 -4.3749,2.1255 -4.3749,2.1255 -5.2233,-0.04 -5.2232,-0.04 z"
       id="path2248" /><path
       style="fill:#000000"
       d="m 4310.1837,2121.8535 -3.8537,-1.9237 -1.3721,-1.1388 -1.3722,-1.1388 -2.5242,-5.3357 -2.5242,-5.3357 v -3.4362 -3.4362 l 1.5338,-4.3473 1.5338,-4.3472 2.2162,-2.3758 2.2162,-2.3758 3.7101,-1.9027 3.7102,-1.9027 h 5.5797 5.5796 l 3.7102,1.9084 3.7102,1.9085 2.7697,2.9168 2.7697,2.9169 0.9803,3.4181 0.9803,3.4181 v 4.5993 4.5993 l -2.3143,4.4073 -2.3143,4.4073 -4.9243,3.25 -4.9243,3.25 -5.5114,-0.04 -5.5114,-0.04 z"
       id="path2247" /><path
       style="fill:#000000"
       d="m 4259.7984,2121.9315 -3.2389,-1.8109 -1.6471,-1.367 -1.6471,-1.367 -2.4265,-3.8438 -2.4265,-3.8439 v -6.4235 -6.4235 l 2.1186,-3.7473 2.1186,-3.7474 4.1741,-2.9803 4.174,-2.9803 6.7421,-0.381 6.7421,-0.3809 4.5501,2.6665 4.5501,2.6666 2.4064,3.6947 2.4064,3.6947 0.6579,4.5711 0.658,4.5711 -1.1288,4.192 -1.1288,4.1921 -3.1132,3.5458 -3.1133,3.5457 -3.8048,1.9411 -3.8049,1.9411 -5.2898,-0.057 -5.2898,-0.057 z"
       id="path2246" /><path
       style="fill:#000000"
       d="m 4208.3726,2121.3349 -4.6647,-2.4293 -1.8841,-2.7742 -1.884,-2.7742 -1.2013,-2.797 -1.2012,-2.7971 v -5.0026 -5.0026 l 1.6169,-3.2003 1.617,-3.2004 2.133,-2.3473 2.1331,-2.3473 3.7101,-1.9027 3.7102,-1.9027 h 5.4177 5.4177 l 3.3721,1.4406 3.3722,1.4405 2.8645,2.7062 2.8646,2.7061 1.8635,4.1033 1.8634,4.1033 0.022,4.0148 0.022,4.0148 -2.1054,3.9852 -2.1053,3.9852 -2.1447,2.3473 -2.1446,2.3474 -3.7102,1.9026 -3.7102,1.9027 -5.2898,-0.046 -5.2898,-0.047 z"
       id="path2245" /><path
       style="fill:#000000"
       d="m 4158.7451,2121.579 -4.2921,-2.2218 -3.4579,-4.3907 -3.4578,-4.3907 v -6.7942 -6.7942 l 0.8934,-2.3151 0.8935,-2.3151 3.65,-3.6268 3.6499,-3.6267 5.2271,-1.6442 5.2271,-1.6441 3.4795,0.6653 3.4795,0.6652 3.6242,1.8118 3.6242,1.8118 2.5873,3.0749 2.5874,3.0749 1.0329,3.719 1.0328,3.7189 -0.016,3.5 -0.016,3.5 -1.8484,4 -1.8484,4 -1.8796,2.1066 -1.8796,2.1066 -4.2102,2.1434 -4.2102,2.1434 -4.7898,-0.028 -4.7898,-0.028 z"
       id="path2244" /><path
       style="fill:#000000"
       d="m 4613.7299,2172.5098 -3.3073,-1.1983 -3.3735,-3.2984 -3.3734,-3.2984 -1.5692,-4.6054 -1.5692,-4.6054 v -2.2389 -2.239 l 1.9234,-4.4873 1.9235,-4.4873 2.3141,-2.6614 2.3141,-2.6614 3.0124,-1.3354 3.0125,-1.3354 3.1871,-1.0248 3.1872,-1.0249 5.1254,1.352 5.1254,1.3521 2.4409,1.5993 2.4408,1.5993 2.695,4.2247 2.695,4.2247 0.4074,6.0824 0.4074,6.0824 -2.1484,4.2113 -2.1484,4.2112 -2.5251,2.2064 -2.5251,2.2063 -3.1823,1.1739 -3.1823,1.174 h -5 -5 z"
       id="path2224" /><path
       style="fill:#000000"
       d="m 4561.6791,2171.756 -4.3583,-2.2119 -2.8014,-3.8672 -2.8014,-3.8673 -0.6655,-4.8388 -0.6655,-4.8387 1.0504,-3.886 1.0505,-3.8859 3.2039,-3.8791 3.204,-3.8792 4.0707,-1.8489 4.0708,-1.8489 h 4.5 4.5 l 4,1.852 4,1.8519 2.6002,2.8761 2.6003,2.8761 1.6497,4.2703 1.6498,4.2702 v 2.9512 2.9513 l -2.4134,5.457 -2.4133,5.4569 -4.2262,2.7968 -4.2261,2.7967 -6.6105,0.3287 -6.6105,0.3287 z"
       id="path2223" /><path
       style="fill:#000000"
       d="m 4510.4651,2171.2655 -4.5722,-2.546 -2.6778,-4.1298 -2.6778,-4.1298 v -6.3495 -6.3495 l 1.6266,-3.2003 1.6265,-3.2004 3.4799,-3.2324 3.4799,-3.2324 3.6435,-1.012 3.6436,-1.012 3.7821,-0.01 3.7821,-0.01 3.7042,1.5477 3.7043,1.5478 2.3609,2.2022 2.361,2.2023 1.9027,3.7102 1.9027,3.7101 v 5.5797 5.5797 l -1.9085,3.7102 -1.9084,3.7101 -2.8416,2.614 -2.8415,2.6139 -3.3993,1.1361 -3.3992,1.136 -5.1008,-0.024 -5.1007,-0.024 z"
       id="path2222" /><path
       style="fill:#000000"
       d="m 4462.0373,2172.4524 -3,-1.3296 -2.6653,-2.505 -2.6652,-2.505 -2.0848,-4.0864 -2.0847,-4.0865 v -4.3047 -4.3046 l 2.1053,-3.9852 2.1053,-3.9852 2.1297,-2.3146 2.1297,-2.3146 3.0299,-1.4378 3.0299,-1.4377 3.2623,-0.9357 3.2624,-0.9356 4.9253,1.4627 4.9253,1.4626 2.992,2.5176 2.9919,2.5176 2.2026,3.5637 2.2025,3.5638 v 6.9377 6.9377 l -3.0455,4.2042 -3.0455,4.2041 -4.2588,2.2522 -4.2589,2.2521 -5.5927,-0.039 -5.5927,-0.039 z"
       id="path2221" /><path
       style="fill:#000000"
       d="m 4411.5373,2172.5294 -2.5,-1.1688 -2.6475,-1.7978 -2.6474,-1.7978 -2.2226,-5.1666 -2.2226,-5.1666 0.5941,-5.6846 0.5942,-5.6845 2.0593,-3.4903 2.0593,-3.4902 3.7166,-2.4129 3.7166,-2.413 4.1849,-1.2185 4.1849,-1.2185 5.1339,1.9507 5.1339,1.9507 2.3847,1.5626 2.3847,1.5625 2.7608,4.7109 2.7607,4.7109 v 5.0851 5.085 l -1.6486,3.4615 -1.6486,3.4614 -3.3156,3.1159 -3.3157,3.1159 -3.3993,1.1341 -3.3992,1.1341 -5.1008,-0.081 -5.1007,-0.081 z"
       id="path2220" /><path
       style="fill:#000000"
       d="m 4361.6824,2172.7907 -2.3548,-0.9432 -2.9178,-2.0777 -2.9178,-2.0776 -1.8939,-3.7123 -1.8939,-3.7123 -0.6879,-3.6672 -0.688,-3.6672 1.7446,-5.5465 1.7446,-5.5465 3.8032,-3.436 3.8032,-3.436 4.3067,-1.1616 4.3067,-1.1616 4.6237,0.5457 4.6238,0.5458 3.087,1.8773 3.0869,1.8773 1.7893,2.4418 1.7893,2.4419 1.3061,2.3193 1.3062,2.3192 0.5636,4.7587 0.5636,4.7587 -2.158,4.8784 -2.1579,4.8784 -1.7118,1.9278 -1.7118,1.9278 -4,1.8368 -4,1.8368 -5.5,-0.041 -5.5,-0.041 z"
       id="path2219" /><path
       style="fill:#000000"
       d="m 4311.0373,2172.6589 -3,-1.0438 -3.2095,-3.0341 -3.2094,-3.0341 -1.5406,-4.5213 -1.5405,-4.5213 v -2.6437 -2.6437 l 1.5643,-4.5909 1.5642,-4.591 3.4009,-3.5017 3.4009,-3.5018 5.0689,-1.4859 5.069,-1.486 5.0285,1.3265 5.0284,1.3265 2.4393,1.5983 2.4393,1.5983 2.6909,4.0661 2.6908,4.0662 0.4198,5.8036 0.4198,5.8036 -1.1586,3.5105 -1.1586,3.5106 -3.3966,3.3211 -3.3966,3.321 -3.3073,1.1983 -3.3073,1.1983 h -5 -5 z"
       id="path2218" /><path
       style="fill:#000000"
       d="m 4260.5373,2172.5294 -2.5,-1.1688 -2.5609,-1.741 -2.5608,-1.7411 -2.301,-4.0941 -2.301,-4.094 0.037,-6.3352 0.037,-6.3352 1.7599,-2.8297 1.7599,-2.8297 2.0654,-2.3359 2.0654,-2.3358 4,-1.7815 4,-1.7815 2.5381,-0.5985 2.5382,-0.5986 4.9338,1.4849 4.9338,1.4849 3.3633,3.231 3.3634,3.231 1.5981,3 1.5981,3 0.022,6.7125 0.022,6.7125 -3.0476,4.2875 -3.0476,4.2875 -4.3702,2.25 -4.3701,2.25 -5.5381,-0.081 -5.5381,-0.081 z"
       id="path2217" /><path
       style="fill:#000000"
       d="m 4210.0373,2172.6569 -3,-1.0458 -2.8761,-2.6252 -2.8761,-2.6253 -1.852,-4 -1.8519,-4 -0.022,-5.0148 -0.022,-5.0148 2.0573,-3.8386 2.0573,-3.8385 1.733,-1.8601 1.7329,-1.8601 4.8656,-2.1523 4.8656,-2.1522 3.7222,0.051 3.7222,0.051 3.8353,1.6025 3.8354,1.6025 1.9163,1.7119 1.9163,1.7118 2.4254,3.8174 2.4254,3.8174 0.5743,4.8495 0.5744,4.8495 -2.2598,4.6679 -2.2597,4.6679 -2.4247,2.4248 -2.4248,2.4248 -3.5671,1.4904 -3.5671,1.4904 -5.1279,-0.079 -5.1278,-0.079 z"
       id="path2216" /><path
       style="fill:#000000"
       d="m 4157.9229,2171.7636 -4.1143,-1.9973 -3.2285,-4.4956 -3.2286,-4.4957 -0.1057,-6.858 -0.1056,-6.8579 2.7086,-4.0931 2.7087,-4.0931 3.7399,-2.3052 3.7399,-2.3052 3.7273,-1.1004 3.7273,-1.1003 4.2727,1.0828 4.2727,1.0828 3.274,1.9296 3.2741,1.9295 2.7259,4.6371 2.726,4.637 v 6.5 6.5 l -3.0069,4.5 -3.0069,4.5 -4.455,2.25 -4.455,2.25 -5.5381,-0.05 -5.5381,-0.05 z"
       id="path2215" /><path
       style="fill:#000000"
       d="m 4107.5125,2171.6106 -4.4485,-2.25 -2.9282,-4.2149 -2.9282,-4.215 -0.4583,-5.5272 -0.4584,-5.5272 2.8541,-5.6411 2.8541,-5.6411 3.8365,-2.4218 3.8365,-2.4219 4.6826,-0.5527 4.6826,-0.5527 4.3066,1.1616 4.3067,1.1616 3.893,3.5171 3.893,3.5171 1.6302,5.6079 1.6303,5.6079 -1.2113,4.5712 -1.2113,4.5712 -2.4802,3.7148 -2.4803,3.7149 -4.2041,2.0351 -4.2041,2.0352 h -5.4724 -5.4724 z"
       id="path2214" /><path
       style="fill:#000000"
       d="m 4058.5373,2172.5294 -2.5,-1.1688 -2.8208,-1.9113 -2.8207,-1.9114 -2.1793,-4.5886 -2.1792,-4.5887 0.072,-5 0.072,-5 2.1342,-4.1242 2.1341,-4.1242 3.0184,-2.5399 3.0185,-2.5398 3.6693,-1.211 3.6693,-1.211 5.2337,0.5402 5.2338,0.5402 2.3723,1.3348 2.3724,1.3349 1.8917,1.5 1.8917,1.5 2.3485,5 2.3485,5 -0.012,4.5 -0.012,4.5 -1.8461,4 -1.8461,4 -2.3956,2.2023 -2.3955,2.2023 -3.7043,1.5477 -3.7042,1.5477 -5.2821,-0.081 -5.2821,-0.081 z"
       id="path2213" /><path
       style="fill:#000000"
       d="m 4615.2008,2223.6375 -3.8364,-1.0165 -3.5008,-3.5007 -3.5008,-3.5008 -1.9127,-4.4623 -1.9128,-4.4624 v -2.8342 -2.8342 l 1.8904,-4.3329 1.8905,-4.3329 2.263,-2.3729 2.263,-2.3729 5.375,-2.3771 5.3751,-2.3771 h 2.5785 2.5785 l 6.2159,2.9666 6.2158,2.9665 2.6771,4.9188 2.6772,4.9188 v 5.2989 5.299 l -2.0504,4.2354 -2.0503,4.2354 -3.2485,2.4778 -3.2485,2.4777 -3.9512,1.097 -3.9511,1.097 -2.5,-0.098 -2.5,-0.098 z"
       id="path2194" /><path
       style="fill:#000000"
       d="m 4564.7132,2223.7807 -3.3242,-1.0157 -4.3634,-4.3634 -4.3634,-4.3635 -1.1492,-4.2676 -1.1492,-4.2677 0.6604,-4.5711 0.6603,-4.5711 2.6202,-3.8334 2.6202,-3.8335 5.7777,-2.9165 5.7776,-2.9166 h 2.9064 2.9064 l 3.757,1.5698 3.757,1.5698 3.0064,2.1802 3.0064,2.1802 2.3588,5.2785 2.3587,5.2785 -0.032,3.2215 -0.032,3.2215 -2.7179,5.4994 -2.7179,5.4995 -4.0546,2.8026 -4.0545,2.8027 -5.4455,0.4158 -5.4454,0.4159 z"
       id="path2193" /><path
       style="fill:#000000"
       d="m 4514.1227,2223.6742 -3.9146,-1.0901 -4.2736,-4.2736 -4.2735,-4.2735 -0.6819,-3.6346 -0.6818,-3.6345 0.4388,-5.2919 0.4389,-5.2918 2.9311,-4.1201 2.9312,-4.1201 5.625,-2.5417 5.6251,-2.5417 h 2.5964 2.5964 l 5.2785,2.3708 5.2786,2.3708 2.5905,2.8792 2.5905,2.8792 1.2798,3.2477 1.2799,3.2477 -0.4346,6.0075 -0.4345,6.0075 -2.9358,4.1557 -2.9358,4.1558 -3.6229,1.8711 -3.6228,1.8711 -4.8772,0.4198 -4.8771,0.4198 z"
       id="path2192" /><path
       style="fill:#000000"
       d="m 4463.1745,2223.3958 -3.8627,-1.377 -2.8469,-2.7275 -2.8469,-2.7275 -2.0404,-4.3407 -2.0403,-4.3407 v -4.3051 -4.3052 l 3.25,-5.3974 3.25,-5.3974 5,-2.5342 5,-2.5341 4.5267,-0.024 4.5267,-0.024 4.8317,2.5 4.8317,2.5 3.0386,4.2063 3.0387,4.2063 v 6.9377 6.9378 l -2.077,3.3559 -2.077,3.356 -2.8201,2.6919 -2.82,2.6919 -4.5,1.0337 -4.5,1.0336 -2.5,-0.019 -2.5,-0.02 z"
       id="path2191" /><path
       style="fill:#000000"
       d="m 4413.6569,2223.7081 -3.3804,-0.9722 -2.472,-1.6198 -2.4721,-1.6197 -2.6306,-4.0679 -2.6305,-4.0679 0.013,-7 0.013,-7 2.2127,-4.1953 2.2127,-4.1953 6.4005,-3.0547 6.4006,-3.0547 2.857,0.022 2.8571,0.022 4.5,2.037 4.5,2.037 2.8392,2.6911 2.8393,2.691 1.5697,3 1.5698,3 0.078,5.5077 0.078,5.5077 -2.6393,4.4923 -2.6393,4.4923 -2.9316,2.1572 -2.9316,2.1571 -3.9161,1.0873 -3.9161,1.0873 -2.5,-0.085 -2.5,-0.085 z"
       id="path2190" /><path
       style="fill:#000000"
       d="m 4363.2222,2223.8438 -2.815,-0.845 -3.4442,-2.627 -3.4442,-2.627 -2.1863,-4.1921 -2.1863,-4.1921 -0.038,-5.6054 -0.038,-5.6053 3.0131,-4.8737 3.0132,-4.8736 5.4702,-2.7542 5.4702,-2.7543 3.1671,-0.017 3.1671,-0.017 4.8329,2.0715 4.8329,2.0715 1.8917,1.6785 1.8917,1.6785 2.3485,5 2.3485,5 v 3.5 3.5 l -2.3637,5 -2.3638,5 -2.8765,2.6568 -2.8764,2.6569 -4,1.0876 -4,1.0876 -3,-0.08 -3,-0.08 z"
       id="path2189" /><path
       style="fill:#000000"
       d="m 4312.2008,2223.692 -3.8364,-1.071 -3.2882,-3.2881 -3.2882,-3.2882 -1.6254,-4.7702 -1.6253,-4.7702 v -2.6437 -2.6437 l 1.5408,-4.4281 1.5409,-4.4282 1.8752,-2.2571 1.8752,-2.2571 5.3339,-2.4831 5.334,-2.4831 2.7214,-0.01 2.7215,-0.01 5.2802,2.3352 5.2802,2.3351 3.199,3.6435 3.199,3.6435 0.6791,3.6197 0.6791,3.6198 -0.5542,5.3692 -0.5541,5.3692 -2.6825,3.5169 -2.6824,3.5169 -3.2128,1.9856 -3.2127,1.9855 -5.4304,0.4811 -5.4304,0.4812 z"
       id="path2188" /><path
       style="fill:#000000"
       d="m 4261.1925,2223.402 -3.8449,-1.3709 -2.4676,-2.3182 -2.4675,-2.3182 -2.0124,-3.256 -2.0124,-3.2561 -0.037,-6.4817 -0.037,-6.4818 2.5547,-4.3593 2.5547,-4.3593 5.9474,-3.1699 5.9474,-3.17 h 3.0815 3.0815 l 5.2861,2.3378 5.2861,2.3377 2.7959,3.6657 2.796,3.6657 1.0767,5.2466 1.0768,5.2465 -1.1932,4.3407 -1.1932,4.3406 -4.0006,4.3401 -4.0006,4.3401 -4.9857,1.0693 -4.9857,1.0692 -2.2008,-0.044 -2.2007,-0.044 z"
       id="path2187" /><path
       style="fill:#000000"
       d="m 4211.5373,2223.7438 -3.5,-1.0527 -3.3589,-2.5492 -3.3588,-2.5491 -1.8692,-4.1161 -1.8692,-4.1161 v -5 -5 l 1.9984,-4.4046 1.9983,-4.4046 1.7297,-1.4032 1.7297,-1.4031 5.2785,-2.4423 5.2785,-2.4422 h 2.8623 2.8623 l 3.8592,1.7668 3.8592,1.7667 2.8925,1.9417 2.8926,1.9417 2.3477,5.0415 2.3476,5.0416 0.01,3.5707 0.01,3.5707 -2.75,5.4231 -2.75,5.4231 -4.0546,2.8083 -4.0545,2.8083 -5.4455,0.4158 -5.4454,0.4159 z"
       id="path2186" /><path
       style="fill:#000000"
       d="m 4161.3286,2223.8722 -2.7086,-0.8165 -3.0016,-2.1373 -3.0016,-2.1373 -2.1637,-3.0386 -2.1637,-3.0387 -0.8428,-3.751 -0.8427,-3.751 0.8,-5.0612 0.8001,-5.0612 2.4166,-3.0398 2.4167,-3.0397 5.6399,-3.0696 5.64,-3.0697 3.36,0.032 3.3601,0.032 5.4994,2.7179 5.4994,2.7179 3.0006,4.3362 3.0006,4.3361 -0.011,6.6639 -0.011,6.6638 -2.3729,4.1612 -2.373,4.1612 -2.6997,1.9959 -2.6996,1.996 -3.9161,1.0873 -3.9161,1.0873 -3,-0.08 -3,-0.08 z"
       id="path2185" /><path
       style="fill:#000000"
       d="m 4110.6654,2223.7103 -3.3719,-0.97 -2.9655,-2.1899 -2.9655,-2.1898 -2.4126,-5.0965 -2.4126,-5.0965 v -4.0314 -4.0313 l 1.4091,-3.3722 1.4092,-3.3721 2.2685,-2.8836 2.2685,-2.8836 5.3509,-2.3664 5.3508,-2.3664 h 2.2215 l 2.2215,-0.01 4.9534,1.755 4.9535,1.7549 3.1928,3.1796 3.1927,3.1796 1.7302,5.2091 1.7302,5.2091 -1.3448,5.6061 -1.3449,5.606 -4.1803,4.1803 -4.1803,4.1803 -3.8513,1.0694 -3.8512,1.0694 -3,-0.085 -3,-0.085 z"
       id="path2184" /><path
       style="fill:#000000"
       d="m 4060.0373,2223.6543 -3,-1.0487 -3.2593,-2.4303 -3.2592,-2.4303 -2.1863,-4.1921 -2.1863,-4.1921 0.043,-5.5 0.043,-5.5 2.4785,-4.5 2.4786,-4.5 6.2613,-3.25 6.2613,-3.25 h 2.8841 2.8841 l 5.2785,2.365 5.2786,2.3649 2.2022,2.3987 2.2023,2.3987 1.5477,3.7042 1.5478,3.7043 v 4.0967 4.0968 l -2.1073,4.8985 -2.1073,4.8985 -3.1916,2.4343 -3.1915,2.4343 -3.9512,1.097 -3.9511,1.097 -3,-0.073 -3,-0.073 z"
       id="path2183" /><path
       style="fill:#000000"
       d="m 4611.6207,2272.3117 -4.4165,-2.5246 -1.3789,-1.7134 -1.379,-1.7134 -1.9545,-4.3329 -1.9545,-4.3329 v -2.7679 -2.7678 l 1.156,-3.3993 1.156,-3.3992 2.8657,-3.6713 2.8657,-3.6713 4.5339,-2.1948 4.534,-2.1949 5.744,0.4155 5.7439,0.4154 4.3765,2.9507 4.3765,2.9507 2.4008,4.5 2.4007,4.5 -0.3564,6.6936 -0.3563,6.6937 -3.0656,3.8063 -3.0656,3.8064 -3.9049,2.2336 -3.9049,2.2335 h -6 -6 z"
       id="path2167" /><path
       style="fill:#000000"
       d="m 4560.0373,2271.5402 -5,-3.442 -1.989,-3.3689 -1.9889,-3.369 -0.011,-6.5855 -0.011,-6.5855 2.9636,-4.2766 2.9637,-4.2766 3.4585,-2.6379 3.4585,-2.6379 h 7.735 7.735 l 3.8428,3.0823 3.8429,3.0822 2.7266,4.9178 2.7266,4.9177 0.023,3.7215 0.023,3.7215 -2.3348,5.2785 -2.3347,5.2785 -4.3124,2.988 -4.3125,2.988 -7.1028,0.3229 -7.1028,0.3229 z"
       id="path2166" /><path
       style="fill:#000000"
       d="m 4510.3858,2271.9792 -4.543,-2.8811 -2.3957,-3.3645 -2.3958,-3.3645 -0.3516,-7.0044 -0.3515,-7.0044 3.3445,-4.8944 3.3446,-4.8944 4.4845,-2.3556 4.4845,-2.3556 h 5.031 5.0309 l 4.4845,2.3745 4.4846,2.3745 2.9539,4.1461 2.9539,4.1461 0.4026,6.323 0.4026,6.3231 -1.7235,3.4064 -1.7235,3.4063 -2.133,2.3473 -2.133,2.3474 -3.7102,1.9026 -3.7102,1.9027 h -5.844 -5.8441 z"
       id="path2165" /><path
       style="fill:#000000"
       d="m 4460.0019,2272.0092 -5.0354,-2.9445 -2.7146,-4.9877 -2.7146,-4.9876 v -4.1545 -4.1546 l 2.1128,-4.2101 2.1129,-4.2102 2.1371,-2.3359 2.1372,-2.3358 4.4585,-2.0341 4.4585,-2.0341 5.827,0.5283 5.827,0.5284 3.5038,2.6725 3.5039,2.6725 2.6678,4.0315 2.6679,4.0314 -0.063,6.8757 -0.063,6.8758 -2.628,3.7619 -2.6281,3.7619 -3.6568,2.4753 -3.6569,2.4752 -6.6094,0.3216 -6.6093,0.3215 z"
       id="path2164" /><path
       style="fill:#000000"
       d="m 4410.9748,2273.0681 -3.0624,-1.7081 -2.0387,-1.5 -2.0386,-1.5 -1.8781,-3.5 -1.8781,-3.5 0.028,-7 0.028,-7 1.8812,-3 1.8812,-3 2.0702,-2 2.0703,-2 2.907,-1.5 2.907,-1.5 6.593,0.034 6.593,0.034 4.1947,2.6936 4.1948,2.6936 2.7886,4.7583 2.7885,4.7583 -0.019,5.514 -0.019,5.514 -1.8989,3 -1.8988,3 -2.0654,2.3473 -2.0653,2.3474 -3.7102,1.9026 -3.7102,1.9027 -5.7898,-0.042 -5.7898,-0.042 z"
       id="path2163" /><path
       style="fill:#000000"
       d="m 4358.254,2271.6855 -4.7832,-3.0354 -1.9403,-3.8033 -1.9403,-3.8033 -0.6072,-3.8417 -0.6072,-3.8418 1.6766,-5 1.6767,-5 3.0883,-3.2376 3.0882,-3.2376 4.29,-1.6384 4.2899,-1.6383 5.2759,0.4438 5.2759,0.4439 3.6223,2.3836 3.6224,2.3835 2.7842,4.401 2.7843,4.401 0.4563,4.7482 0.4562,4.7481 -2.1511,4.8629 -2.151,4.8628 -1.7118,1.9278 -1.7118,1.9278 -4,1.8368 -4,1.8368 -6,-0.048 -6,-0.048 z"
       id="path2162" /><path
       style="fill:#000000"
       d="m 4310.0373,2273.2012 -3,-1.5788 -2.7233,-2.5427 -2.7233,-2.5426 -1.6436,-4.9486 -1.6437,-4.9485 0.5195,-3.873 0.5195,-3.873 2.2171,-4.58 2.2172,-4.58 4.0665,-2.5671 4.0665,-2.5671 6.0638,-0.4391 6.0638,-0.439 4.5,2.4436 4.5,2.4437 2.9148,4.0904 2.9148,4.0905 0.4389,5.2929 0.439,5.2929 -1.1063,4.1083 -1.1062,4.1083 -2.7344,2.7344 -2.7344,2.7344 -3.7233,1.8994 -3.7233,1.8995 -5.7898,-0.04 -5.7898,-0.04 z"
       id="path2161" /><path
       style="fill:#000000"
       d="m 4257.8014,2271.8385 -5.2359,-3.0028 -2.1154,-4.1465 -2.1154,-4.1466 0.367,-7.2679 0.367,-7.2679 3.0736,-3.8234 3.0737,-3.8234 4.4106,-2.3043 4.4107,-2.3043 6.3319,0.4457 6.3319,0.4458 3.6681,2.9514 3.6681,2.9514 2.1324,3.1306 2.1325,3.1307 0.6563,4.3764 0.6563,4.3764 -0.9377,4.1731 -0.9376,4.1732 -2.735,3.5858 -2.7351,3.5858 -4.116,1.8692 -4.1161,1.8692 -5.5,0.013 -5.5,0.012 z"
       id="path2160" /><path
       style="fill:#000000"
       d="m 4209.0373,2273.1984 -3,-1.5816 -2.382,-2.1284 -2.3819,-2.1284 -1.8461,-4 -1.8461,-4 -0.022,-4.7609 -0.022,-4.7609 2.1294,-4.5301 2.1293,-4.53 4.595,-3.1615 4.595,-3.1614 5.5953,-0.4048 5.5953,-0.4047 4.4303,2.0213 4.4304,2.0213 2.1879,2.3358 2.1879,2.3359 2.0401,4.5 2.0401,4.5 0.022,3.4035 0.022,3.4035 -2.5271,5.3417 -2.527,5.3417 -5.223,2.9954 -5.2229,2.9954 -6,-0.031 -6,-0.031 z"
       id="path2159" /><path
       style="fill:#000000"
       d="m 4157.5373,2272.2886 -4.5,-2.5227 -2.7976,-3.9289 -2.7976,-3.929 -0.023,-7.1191 -0.023,-7.1191 2.8031,-4.0449 2.8032,-4.0449 3.9439,-2.61 3.9439,-2.61 h 7.073 7.0731 l 4.019,2.6168 4.0191,2.6167 2.8673,5.6672 2.8674,5.6672 -0.5631,5.4552 -0.563,5.4553 -2.8504,4.2442 -2.8505,4.2442 -3.9729,2.2501 -3.9729,2.2502 -6,-0.01 -6,-0.01 z"
       id="path2158" /><path
       style="fill:#000000"
       d="m 4105.9573,2271.61 -4.806,-3.25 -2.307,-4.4073 -2.307,-4.4073 v -4.4962 -4.4962 l 2.4511,-5.1813 2.4511,-5.1812 4.2989,-2.8594 4.2989,-2.8594 5.6624,-0.4197 5.6625,-0.4197 4.7121,2.3533 4.7122,2.3534 2.7272,3.3086 2.7272,3.3086 1.2733,5.3077 1.2733,5.3078 -1.2464,3.8942 -1.2464,3.8941 -1.8536,3.0774 -1.8536,3.0774 -4.9105,2.6726 -4.9104,2.6726 h -6.0017 -6.0016 z"
       id="path2157" /><path
       style="fill:#000000"
       d="m 4058.0373,2273.1742 -3,-1.6058 -2.3397,-1.8187 -2.3397,-1.8186 -2.0094,-3.7855 -2.0095,-3.7856 -0.1016,-5.5 -0.1017,-5.5 1.8178,-3.5 1.8177,-3.5 2.133,-2.3359 2.1331,-2.3358 4.4303,-2.0213 4.4303,-2.0213 5.5697,0.4171 5.5697,0.417 4.3232,2.7489 4.3232,2.7489 2.417,5.1912 2.417,5.1912 v 4 4 l -2.3485,5 -2.3485,5 -1.9283,1.7119 -1.9283,1.7118 -3.6813,1.5382 -3.6813,1.5381 -5.2821,-0.04 -5.2821,-0.04 z"
       id="path2156" /><path
       style="fill:#000000"
       d="m 4561.4634,2323.0279 -4.4654,-2.8319 -2.6308,-3.1265 -2.6308,-3.1265 -0.6597,-4.7964 -0.6597,-4.7965 0.945,-4.2059 0.945,-4.2059 3.1052,-3.9206 3.1052,-3.9206 3.6669,-1.74 3.667,-1.7401 7.2008,0.4621 7.2009,0.4621 3.6163,2.7583 3.6164,2.7584 2.5258,5.339 2.5258,5.3391 -0.032,3.3119 -0.032,3.3119 -2.7179,5.5 -2.7179,5.5 -4.8631,3.25 -4.863,3.25 h -5.6912 -5.6912 z"
       id="path2142" /><path
       style="fill:#000000"
       d="m 4513.5373,2324.5552 -2.5,-1.1693 -1.3484,-1.013 -1.3484,-1.0131 -2.9849,-3 -2.9849,-3 -0.9167,-2.3151 -0.9167,-2.3151 v -6.2844 -6.2844 l 2.8234,-4.204 2.8234,-4.204 3.4266,-2.1779 3.4266,-2.1778 8,-0.019 8,-0.019 2.9934,2 2.9935,2 2.2258,2.5 2.2259,2.5 1.1432,3.356 1.1432,3.356 -0.4198,5.8036 -0.4198,5.8036 -2.6973,4.0759 -2.6973,4.0759 -4.9622,2.5145 -4.9621,2.5145 -4.7833,-0.068 -4.7832,-0.068 z"
       id="path2141" /><path
       style="fill:#000000"
       d="m 4460.2845,2322.9145 -4.6444,-2.9454 -3.042,-5.3046 -3.0421,-5.3047 -0.01,-4.5442 -0.01,-4.5443 3.25,-5.3911 3.25,-5.3912 4.4072,-2.3146 4.4073,-2.3146 h 5.8826 5.8825 l 3.7913,1.9342 3.7912,1.9341 2.8234,3.7017 2.8234,3.7016 0.8153,4.3642 0.8154,4.3642 -0.8268,4.4255 -0.8268,4.4256 -3.257,4.1123 -3.257,4.1123 -3.8462,1.9621 -3.8462,1.9622 h -5.344 -5.3441 z"
       id="path2140" /><path
       style="fill:#000000"
       d="m 4410.0373,2323.4177 -4,-2.3034 -3,-4.3773 -3,-4.3772 0.072,-7.5 0.072,-7.5 2.2398,-3.6879 2.2398,-3.6878 3.6879,-2.1975 3.6879,-2.1975 6.6375,-0.4909 6.6375,-0.491 4.3625,2.2045 4.3625,2.2045 2.7573,3.5923 2.7574,3.5923 1.074,3.9887 1.0741,3.9888 -0.6559,3.5907 -0.6559,3.5908 -2.3845,4.1082 -2.3846,4.1081 -2.791,1.8883 -2.7909,1.8882 -2.8648,1.2536 -2.8649,1.2536 -5.1351,-0.069 -5.1352,-0.069 z"
       id="path2139" /><path
       style="fill:#000000"
       d="m 4359.483,2323.0111 -4.4457,-2.8486 -1.6458,-1.9014 -1.6457,-1.9013 -1.6043,-4.7849 -1.6042,-4.785 v -1.9301 -1.9301 l 1.6086,-4.7849 1.6087,-4.785 3.4555,-3.1936 3.4554,-3.1936 3.5348,-1.1666 3.5348,-1.1666 6.3639,0.4052 6.3639,0.4053 3.6427,2.9549 3.6428,2.955 2.4632,4.5 2.4632,4.5 -0.4593,5.5883 -0.4592,5.5882 -1.3595,2.4118 -1.3595,2.4117 -2.5,2.8416 -2.5,2.8416 -3.7102,1.9084 -3.7102,1.9084 h -5.344 -5.3441 z"
       id="path2138" /><path
       style="fill:#000000"
       d="m 4309.7294,2323.6717 -4.3079,-2.0883 -2.4126,-3.5506 -2.4127,-3.5505 -1.1502,-5.1399 -1.1503,-5.1398 1.6287,-5.4214 1.6287,-5.4214 1.7421,-2.0004 1.7421,-2.0004 2.9392,-1.8967 2.9393,-1.8966 6.7544,-0.4833 6.7544,-0.4833 4.1182,2.1466 4.1183,2.1466 2.4074,2.7337 2.4074,2.7338 1.1432,3.356 1.1432,3.356 -0.4198,5.8036 -0.4198,5.8036 -2.6973,4.0759 -2.6973,4.0759 -4.9622,2.5145 -4.9621,2.5145 -4.7833,-0.05 -4.7832,-0.05 z"
       id="path2137" /><path
       style="fill:#000000"
       d="m 4259.3551,2323.4819 -3.6823,-2.1894 -2.1503,-1.946 -2.1503,-1.9461 -1.4175,-3.3924 -1.4174,-3.3924 v -6.1821 -6.1821 l 2.8998,-4.5726 2.8998,-4.5726 3.3502,-1.6989 3.3502,-1.6989 5.1516,-0.554 5.1516,-0.5541 3.5556,0.6671 3.5556,0.667 3.884,3.7317 3.884,3.7318 1.3485,2.4809 1.3485,2.481 -0.01,6.5 -0.01,6.5 -1.5941,3 -1.5942,3 -2.8393,2.6359 -2.8392,2.6358 -3.2004,1.6142 -3.2003,1.6141 -5.2997,-0.094 -5.2996,-0.094 z"
       id="path2136" /><path
       style="fill:#000000"
       d="m 4207.5568,2322.6098 -5.3921,-3.25 -2.2855,-4.5 -2.2856,-4.5 -0.028,-5.0381 -0.028,-5.0381 2.25,-4.4039 2.25,-4.404 3.6939,-2.9374 3.694,-2.9375 6.9997,-0.5008 6.9997,-0.5009 4.2731,2.2273 4.2731,2.2273 1.9165,2.1531 1.9165,2.153 1.9865,4.415 1.9865,4.4149 -0.5647,4.7676 -0.5646,4.7677 -2.4191,3.8321 -2.4191,3.8321 -1.386,1.1287 -1.386,1.1288 -3.7805,2.1066 -3.7804,2.1065 h -5.2638 -5.2638 z"
       id="path2135" /><path
       style="fill:#000000"
       d="m 4158.5373,2323.6951 -3.5,-2.0228 -2.7448,-2.9623 -2.7448,-2.9622 -1.1434,-2.1364 -1.1434,-2.1364 0.042,-6.7607 0.042,-6.7606 3.1213,-4.3464 3.1214,-4.3464 3.051,-1.8023 3.0511,-1.8023 5.917,-0.5366 5.917,-0.5365 4.4599,1.7032 4.4598,1.7032 3.0045,3.422 3.0045,3.422 1.1452,4.2527 1.1451,4.2528 -0.6071,4.4294 -0.6071,4.4294 -2.4211,4.1313 -2.4211,4.1313 -4.9602,2.6996 -4.9602,2.6997 -5.3647,-0.071 -5.3646,-0.071 z"
       id="path2134" /><path
       style="fill:#000000"
       d="m 4107.0028,2322.9533 -5.0344,-2.8877 -2.7156,-5.3672 -2.7155,-5.3673 v -4.2986 -4.2986 l 2.6601,-5.4328 2.6602,-5.4327 3.2164,-1.8977 3.2163,-1.8977 3.2881,-0.7222 3.2881,-0.7222 3.8918,0.054 3.8918,0.054 4.3319,2.0971 4.332,2.0971 2.5346,3.7148 2.5346,3.7148 1.1604,4.4165 1.1604,4.4164 -1.2589,4.5836 -1.259,4.5835 -2.4809,3.2996 -2.4809,3.2995 -4.1814,2.4505 -4.1814,2.4504 -5.4121,-0.01 -5.4121,-0.01 z"
       id="path2133" /><path
       style="fill:#000000"
       d="m 4059.0373,2324.5535 -2,-1.1887 -3.2793,-2.3257 -3.2793,-2.3258 -2.2207,-4.6767 -2.2207,-4.6768 0.072,-5 0.072,-5 2.1985,-4.2504 2.1985,-4.2504 4.2295,-2.7456 4.2295,-2.7455 h 8.1571 8.1572 l 3.8428,3.106 3.8429,3.1061 1.818,3.1028 1.818,3.1028 0.5679,5.5031 0.568,5.5031 -2.7243,5.5683 -2.7243,5.5683 -5.1617,2.9604 -5.1616,2.9603 -5.5,-0.049 -5.5,-0.049 z"
       id="path2132" /><path
       style="fill:#000000"
       d="m 4560.9014,2373.0087 -3.9358,-2.8512 -2.6409,-3.1385 -2.6409,-3.1385 -0.6782,-5.4276 -0.6781,-5.4275 1.1618,-3.5203 1.1618,-3.5203 2.1225,-2.6983 2.1225,-2.6983 4.5163,-2.8642 4.5164,-2.8642 h 5.3441 5.344 l 3.8635,1.971 3.8634,1.971 3.0967,3.7568 3.0968,3.7569 v 1.7131 1.7132 l 1,0.618 1,0.6181 v 3.858 3.8581 l -1.8719,4.3668 -1.8718,4.3667 -3.7392,3.2832 -3.7393,3.2831 -2.454,0.933 -2.454,0.933 h -5.7849 -5.7849 z"
       id="path2120" /><path
       style="fill:#000000"
       d="m 4513.5373,2375.1356 -1.5,-0.5664 -3.692,-2.8927 -3.692,-2.8928 -2.1652,-3.5034 -2.1652,-3.5035 0.3751,-7.2085 0.3752,-7.2085 2.4115,-3.2383 2.4115,-3.2384 3.9264,-2.721 3.9263,-2.721 6.1442,-0.3685 6.1442,-0.3686 4.5,2.3849 4.5,2.3849 3.25,4.806 3.25,4.806 v 5.7649 5.7649 l -1.4127,3.3721 -1.4127,3.3721 -2.3373,2.145 -2.3373,2.145 -3.5,2.1013 -3.5,2.1012 -6,-0.075 -6,-0.075 z"
       id="path2119" /><path
       style="fill:#000000"
       d="m 4462.0373,2374.2904 -3,-1.5571 -2.8416,-2.6867 -2.8416,-2.6868 -1.9084,-3.7101 -1.9084,-3.7102 v -4.072 -4.0719 l 1.3484,-3.2179 1.3485,-3.2179 2.7773,-3.2938 2.7773,-3.2939 3.8344,-1.9561 3.8344,-1.9562 h 4.8279 4.828 l 4.4475,2.25 4.4475,2.25 3.1184,4.1364 3.1184,4.1363 0.6384,3.9925 0.6384,3.9924 -0.8808,4.7147 -0.8808,4.7147 -3.7825,3.8737 -3.7824,3.8736 -3.2303,1.5329 -3.2303,1.5328 -5.3489,-0.01 -5.3488,-0.01 z"
       id="path2118" /><path
       style="fill:#000000"
       d="m 4410.7767,2374.2074 -3.2606,-1.6072 -2.9473,-3.3569 -2.9474,-3.3568 -1.1499,-4.2632 -1.1499,-4.2631 0.5404,-4.5786 0.5404,-4.5785 2.1009,-3.5607 2.1008,-3.5606 4.2166,-2.8608 4.2166,-2.8608 h 7.0855 7.0855 l 4.2277,2.9298 4.2277,2.9298 2.6373,4.5003 2.6373,4.5002 0.05,5.0699 0.05,5.07 -1.7579,3.6678 -1.7579,3.6677 -3.2421,2.7338 -3.2421,2.7338 -3.2179,1.3485 -3.2179,1.3484 -5.2821,-0.023 -5.2821,-0.023 z"
       id="path2117" /><path
       style="fill:#000000"
       d="m 4360.7935,2374.2174 -3.2437,-1.5991 -3.4397,-3.8074 -3.4397,-3.8073 -1.061,-3.8208 -1.061,-3.8208 -0.01,-1.715 -0.01,-1.7151 1.598,-4.7849 1.598,-4.785 2.5915,-2.7525 2.5915,-2.7526 4.1262,-1.9974 4.1262,-1.9975 h 4.7832 4.7831 l 3.3585,1.5937 3.3584,1.5937 2.6858,2.6563 2.6858,2.6563 1.8349,4 1.8349,4 v 4 4 l -1.9116,4 -1.9117,4 -1.8164,2.1555 -1.8163,2.1555 -3.9852,2.0945 -3.9852,2.0945 -5.5148,-0.023 -5.5148,-0.023 z"
       id="path2116" /><path
       style="fill:#000000"
       d="m 4105.9573,2372.612 -4.806,-3.25 -2.307,-4.4073 -2.307,-4.4073 v -4.9709 -4.971 l 2.9745,-5.199 2.9745,-5.1989 4.9108,-2.6728 4.9108,-2.6728 h 4.6468 4.6468 l 3.323,1.3884 3.323,1.3885 3.5856,3.5856 3.5856,3.5856 1.6615,5.276 1.6615,5.2759 -1.6526,5.6791 -1.6525,5.6792 -4.002,3.6155 -4.0019,3.6155 -2.5128,0.9553 -2.5128,0.9554 h -5.8219 -5.8219 z"
       id="path2115" /><path
       style="fill:#000000"
       d="m 4058.0395,2374.3417 -2.9978,-1.6182 -1.8819,-1.6807 -1.882,-1.6808 -2.5773,-4 -2.5774,-4 -0.017,-5.5 -0.017,-5.5 2.4744,-4.4625 2.4745,-4.4625 4.5,-3.0375 4.5,-3.0375 h 7.0855 7.0855 l 4.3328,3 4.3327,3 2.4496,5.3474 2.4496,5.3473 -0.46,4.7874 -0.46,4.7873 -1.9969,3.8653 -1.997,3.8653 -4.204,2.9698 -4.204,2.9697 -6.7069,0.3292 -6.7069,0.3292 z"
       id="path2114" /><path
       style="fill:#000000"
       d="m 4915.5373,2424.5277 -4.5,-2.2781 -3.1255,-4.6203 -3.1254,-4.6202 -0.6643,-4.4298 -0.6643,-4.4298 2.1042,-5.6241 2.1043,-5.624 3.5862,-2.9561 3.5862,-2.956 4.9773,-1.1941 4.9774,-1.194 5.1808,1.1594 5.1807,1.1594 3.0418,2.7782 3.0418,2.7783 1.8862,2.8787 1.8862,2.8788 v 7.7057 7.7056 l -2.5234,3.5467 -2.5235,3.5466 -2.4634,1.9017 -2.4633,1.9017 -3.3993,1.1601 -3.3992,1.16 -4.1008,-0.028 -4.1007,-0.028 z"
       id="path2104" /><path
       style="fill:#000000"
       d="m 4461.9793,2424.914 -4.058,-1.8068 -2.729,-3.2432 -2.7291,-3.2433 -1.463,-3.5014 -1.4629,-3.5014 0.01,-4.1279 0.01,-4.1279 2.7418,-4.6529 2.7419,-4.6529 3,-2.4373 3,-2.4373 3.3992,-1.1598 3.3992,-1.1598 h 2.1693 2.1693 l 5.1911,1.5416 5.1911,1.5416 3.9904,5.0482 3.9904,5.0482 v 7.8325 7.8324 l -3.2654,4.3278 -3.2654,4.3277 -4.4846,2.2088 -4.4846,2.2088 -4.5,-0.029 -4.5,-0.03 z"
       id="path2103" /><path
       style="fill:#000000"
       d="m 4411.5552,2424.841 -4.482,-2.0891 -1.8146,-1.6422 -1.8147,-1.6422 -1.62,-3.4139 -1.62,-3.4139 0.012,-7.1389 0.012,-7.1389 1.9695,-3.2107 1.9695,-3.2108 2.6581,-2.0908 2.6582,-2.0909 4.5664,-1.556 4.5665,-1.5559 4.3581,0.6535 4.3582,0.6536 4.393,2.9098 4.3931,2.9099 2.4299,4.2941 2.4298,4.2942 0.012,5.514 0.012,5.514 -2.7599,4.7094 -2.7599,4.7095 -4.6179,2.7063 -4.618,2.7062 -5.1054,0.3544 -5.1055,0.3543 z"
       id="path2102" /><path
       style="fill:#000000"
       d="m 4868.4151,2476.0314 -4.6222,-1.6698 -2.3778,-2.0269 -2.3778,-2.027 -2.4352,-3.4329 -2.4351,-3.433 -0.4383,-5.2851 -0.4383,-5.285 1.2448,-3.005 1.2447,-3.0051 h 0.8787 0.8787 v -1.75 -1.75 l 3.4572,-2.7585 3.4572,-2.7584 2.6079,-0.9916 2.6079,-0.9915 4.6849,0.022 4.6849,0.022 4.0707,1.8489 4.0707,1.8489 3.1157,3.7799 3.1157,3.7798 1.1503,4.7951 1.1503,4.795 -1.5787,5.4307 -1.5788,5.4307 -3.9484,3.5671 -3.9484,3.5671 -5.2411,1.5565 -5.241,1.5564 -0.5685,-0.08 -0.5685,-0.08 z"
       id="path2093" /><path
       style="fill:#000000"
       d="m 4822.0373,2477.0995 -2,-0.3682 -3.3358,-1.0407 -3.3358,-1.0407 -3.4731,-3.0495 -3.4732,-3.0494 -1.9411,-3.8049 -1.941,-3.8048 v -4.5797 -4.5797 l 1.896,-3.7101 1.8961,-3.7102 3.4284,-3.1145 3.4284,-3.1145 3.7876,-1.25 3.7876,-1.2501 5.3277,0.4419 5.3278,0.4418 3.9185,2.5932 3.9186,2.5931 2.8449,4.8296 2.845,4.8295 -0.065,5.2593 -0.065,5.2593 -2.8882,4.6445 -2.8881,4.6444 -2.5331,1.8795 -2.5331,1.8796 -4.9669,1.2697 -4.9669,1.2697 z"
       id="path2092" /><path
       style="fill:#000000"
       d="m 4415.1008,2476.2471 -4.9364,-1.2734 -2.5636,-1.898 -2.5635,-1.898 -2.1141,-3.1041 -2.114,-3.1042 -0.6467,-4.8752 -0.6467,-4.8752 0.6791,-3.4287 0.6791,-3.4287 1.5853,-2.8527 1.5853,-2.8526 4.3447,-3.1474 4.3448,-3.1473 h 7.1516 7.1516 l 3.764,2.3403 3.7641,2.3402 2.8942,4.2066 2.8942,4.2066 0.6953,4.637 0.6954,4.6369 -2.4828,5.4232 -2.4828,5.4231 -3.5644,2.7187 -3.5643,2.7186 -4.8065,1.2538 -4.8064,1.2538 z"
       id="path2091" /><path
       style="fill:#000000"
       d="m 4763.791,2525.4097 -4.2463,-2.4279 -2.3947,-2.784 -2.3947,-2.784 -1.1943,-5.3365 -1.1942,-5.3366 1.2049,-5.1895 1.2048,-5.1896 3.1304,-3.3609 3.1304,-3.361 4.3329,-1.889 4.3329,-1.8891 h 3.928 3.928 l 4.4941,2.1125 4.4942,2.1126 2.9579,3.7346 2.9579,3.7346 1.1879,4.4416 1.188,4.4417 -0.6845,3.6484 -0.6844,3.6484 -3.2165,4.7558 -3.2164,4.7558 -4.4073,2.307 -4.4073,2.307 -5.0927,-0.012 -5.0927,-0.012 z"
       id="path2089" /><path
       style="fill:#000000"
       d="m 4409.9182,2524.9068 -5.119,-2.936 -2.3446,-3.8046 -2.3446,-3.8046 0.027,-7 0.027,-7 1.7946,-3.5 1.7946,-3.5 2.142,-1.8068 2.1421,-1.8067 4.3329,-1.9433 4.3329,-1.9432 h 3.3342 3.3342 l 4.3329,1.8681 4.3329,1.8681 2.7838,2.8021 2.7839,2.8022 1.7161,3.5797 1.7162,3.5798 v 5.0784 5.0785 l -3.0344,4.9215 -3.0343,4.9216 -4.9657,2.7267 -4.9656,2.7266 -5,0.014 -5,0.014 z"
       id="path2088" /><path
       style="fill:#000000"
       d="m 4716.0373,2577.1437 -2,-0.4858 -3.2878,-2.4779 -3.2878,-2.4778 -2.4622,-3.9004 -2.4622,-3.9004 v -5.9548 -5.9548 l 1.0636,-2.8151 1.0636,-2.8151 2.6864,-2.8416 2.6864,-2.8415 3.7101,-1.9085 3.7102,-1.9084 h 5.5094 5.5094 l 3.7804,2.0975 3.7805,2.0975 2.2248,2.0532 2.2248,2.0532 1.6512,4.3234 1.6511,4.3235 -0.4611,5.5609 -0.4612,5.5609 -2.9148,4.1382 -2.9148,4.1382 -4.4073,2.3267 -4.4073,2.3268 -5.0927,-0.116 -5.0927,-0.116 z"
       id="path2084" /><path
       style="fill:#000000"
       d="m 4665.2831,2576.9128 -2.7542,-0.8805 -3.2458,-2.7035 -3.2458,-2.7035 -2.2048,-4.1319 -2.2049,-4.1318 -0.045,-5.137 -0.045,-5.137 3.25,-4.8306 3.25,-4.8306 4,-2.7492 4,-2.7491 5.7996,-0.033 5.7997,-0.033 3.2003,1.6142 3.2004,1.6141 2.8392,2.6359 2.8393,2.6358 1.5839,3 1.5839,3 0.014,6.1675 0.014,6.1675 -2.6482,4.0016 -2.6481,4.0016 -3.6594,2.7912 -3.6594,2.7911 -6.13,0.2556 -6.1299,0.2555 z"
       id="path2083" /></g></svg>
